# Blender 3.6.1
# www.blender.org
mtllib HypertensionMap.mtl
o Cylinder
v 6.078184 5.538827 2.290058
v 6.077048 4.976342 -0.950655
v 6.287529 5.547339 2.263455
v 6.415277 5.028507 -0.950655
v 6.477204 5.612890 2.266837
v 6.696144 5.151443 -0.950647
v 6.640727 5.728790 2.298483
v 6.949069 5.338107 -0.950655
v 6.734065 5.839650 2.339773
v 7.163013 5.575092 -0.937703
v 6.860328 6.026995 2.376446
v 7.299292 5.810087 -0.899553
v 6.902754 6.159801 2.420292
v 7.389585 6.062501 -0.861845
v 6.914890 6.371169 2.511034
v 7.432771 6.362864 -0.806415
v 6.900000 6.569505 2.549349
v 7.421900 6.637142 -0.737735
v 6.888918 6.748448 2.549349
v 7.381405 6.849412 -0.671941
v 6.847452 6.903897 2.549350
v 7.286581 7.082592 -0.623114
v 6.770830 7.062500 2.549349
v 7.165744 7.291007 -0.560383
v 6.649063 7.187162 2.573305
v 6.985636 7.543001 -0.464378
v 6.506250 7.287605 2.586640
v 6.775000 7.708331 -0.450655
v 6.431250 7.338722 2.560050
v 6.562525 7.800078 -0.450713
v 6.304481 7.392828 2.549428
v 6.425223 7.830362 -0.450655
v 6.120447 7.410981 2.549377
v 6.112982 7.835729 -0.450655
v 5.931214 7.385746 2.549339
v 5.881239 7.812590 -0.450700
v 5.752475 7.324889 2.549349
v 5.656271 7.752582 -0.450709
v 5.581899 7.234047 2.549306
v 5.443866 7.642310 -0.450640
v 5.436263 7.127254 2.549349
v 5.261835 7.505077 -0.450655
v 5.302146 6.979113 2.549349
v 5.084010 7.314773 -0.450655
v 5.205081 6.840467 2.516847
v 4.916070 7.087501 -0.450655
v 5.128614 6.712501 2.461678
v 4.832428 6.776609 -0.598270
v 5.088742 6.519274 2.436893
v 4.783647 6.506267 -0.750469
v 5.107006 6.325001 2.473494
v 4.777071 6.325069 -0.827056
v 5.150735 6.084312 2.471586
v 4.791856 6.150381 -0.826943
v 5.171415 5.973113 2.416878
v 4.872186 5.925250 -0.778925
v 5.290854 5.786037 2.380081
v 5.099183 5.548964 -0.780762
v 5.385714 5.695762 2.343989
v 5.314861 5.285241 -0.868231
v 5.596028 5.590791 2.319931
v 5.512500 5.130561 -0.950655
v 5.781250 5.551322 2.308356
v 5.771480 5.005725 -0.950655
vn 0.1166 -0.9792 0.1663
vn 0.3661 -0.9168 0.1595
vn 0.5733 -0.8050 0.1528
vn 0.7294 -0.6676 0.1494
vn 0.8277 -0.5410 0.1494
vn 0.9251 -0.3499 0.1474
vn 0.9772 -0.1488 0.1512
vn 0.9876 0.0186 0.1557
vn 0.9824 0.1033 0.1558
vn 0.9387 0.3103 0.1503
vn 0.8814 0.4492 0.1461
vn 0.7943 0.5886 0.1505
vn 0.6010 0.7830 0.1600
vn 0.4276 0.8900 0.1581
vn 0.2952 0.9430 0.1534
vn 0.0468 0.9886 0.1430
vn -0.1131 0.9836 0.1407
vn -0.2839 0.9483 0.1420
vn -0.4603 0.8766 0.1401
vn -0.5918 0.7947 0.1349
vn -0.7293 0.6722 0.1276
vn -0.8088 0.5747 0.1248
vn -0.9490 0.2966 0.1074
vn -0.9838 0.1515 0.0959
vn -0.9944 -0.0413 0.0974
vn -0.9851 -0.1392 0.1014
vn -0.9528 -0.2881 0.0957
vn -0.8457 -0.5262 0.0889
vn -0.7307 -0.6755 0.0987
vn -0.5089 -0.8515 0.1265
vn -0.0340 0.1892 -0.9814
vn -0.3397 -0.9288 0.1479
vn -0.0633 -0.9838 0.1678
vn -0.0034 -0.1488 0.9889
vt 1.000000 0.500000
vt 1.000000 1.000000
vt 0.968750 1.000000
vt 0.968750 0.500000
vt 0.937500 1.000000
vt 0.937500 0.500000
vt 0.906250 1.000000
vt 0.906250 0.500000
vt 0.875000 1.000000
vt 0.875000 0.500000
vt 0.843750 1.000000
vt 0.843750 0.500000
vt 0.812500 1.000000
vt 0.812500 0.500000
vt 0.781250 1.000000
vt 0.781250 0.500000
vt 0.750000 1.000000
vt 0.750000 0.500000
vt 0.718750 1.000000
vt 0.718750 0.500000
vt 0.687500 1.000000
vt 0.687500 0.500000
vt 0.656250 1.000000
vt 0.656250 0.500000
vt 0.625000 1.000000
vt 0.625000 0.500000
vt 0.593750 1.000000
vt 0.593750 0.500000
vt 0.562500 1.000000
vt 0.562500 0.500000
vt 0.531250 1.000000
vt 0.531250 0.500000
vt 0.500000 1.000000
vt 0.500000 0.500000
vt 0.468750 1.000000
vt 0.468750 0.500000
vt 0.437500 1.000000
vt 0.437500 0.500000
vt 0.406250 1.000000
vt 0.406250 0.500000
vt 0.375000 1.000000
vt 0.375000 0.500000
vt 0.343750 1.000000
vt 0.343750 0.500000
vt 0.312500 1.000000
vt 0.312500 0.500000
vt 0.281250 1.000000
vt 0.281250 0.500000
vt 0.250000 1.000000
vt 0.250000 0.500000
vt 0.218750 1.000000
vt 0.218750 0.500000
vt 0.187500 1.000000
vt 0.187500 0.500000
vt 0.156250 1.000000
vt 0.156250 0.500000
vt 0.125000 1.000000
vt 0.125000 0.500000
vt 0.093750 1.000000
vt 0.093750 0.500000
vt 0.062500 1.000000
vt 0.062500 0.500000
vt 0.296822 0.485388
vt 0.250000 0.490000
vt 0.203178 0.485388
vt 0.158156 0.471731
vt 0.116663 0.449553
vt 0.080294 0.419706
vt 0.050447 0.383337
vt 0.028269 0.341844
vt 0.014612 0.296822
vt 0.010000 0.250000
vt 0.014612 0.203178
vt 0.028269 0.158156
vt 0.050447 0.116663
vt 0.080294 0.080294
vt 0.116663 0.050447
vt 0.158156 0.028269
vt 0.203178 0.014612
vt 0.250000 0.010000
vt 0.296822 0.014612
vt 0.341844 0.028269
vt 0.383337 0.050447
vt 0.419706 0.080294
vt 0.449553 0.116663
vt 0.471731 0.158156
vt 0.485388 0.203178
vt 0.490000 0.250000
vt 0.485388 0.296822
vt 0.471731 0.341844
vt 0.449553 0.383337
vt 0.419706 0.419706
vt 0.383337 0.449553
vt 0.341844 0.471731
vt 0.031250 1.000000
vt 0.031250 0.500000
vt 0.000000 1.000000
vt 0.000000 0.500000
vt 0.750000 0.490000
vt 0.796822 0.485388
vt 0.841844 0.471731
vt 0.883337 0.449553
vt 0.919706 0.419706
vt 0.949553 0.383337
vt 0.971731 0.341844
vt 0.985388 0.296822
vt 0.990000 0.250000
vt 0.985388 0.203178
vt 0.971731 0.158156
vt 0.949553 0.116663
vt 0.919706 0.080294
vt 0.883337 0.050447
vt 0.841844 0.028269
vt 0.796822 0.014612
vt 0.750000 0.010000
vt 0.703178 0.014612
vt 0.658156 0.028269
vt 0.616663 0.050447
vt 0.580294 0.080294
vt 0.550447 0.116663
vt 0.528269 0.158156
vt 0.514612 0.203178
vt 0.510000 0.250000
vt 0.514612 0.296822
vt 0.528269 0.341844
vt 0.550447 0.383337
vt 0.580294 0.419706
vt 0.616663 0.449553
vt 0.658156 0.471731
vt 0.703178 0.485388
s 0
f 1/1/1 2/2/1 4/3/1 3/4/1
f 3/4/2 4/3/2 6/5/2 5/6/2
f 5/6/3 6/5/3 8/7/3 7/8/3
f 7/8/4 8/7/4 10/9/4 9/10/4
f 9/10/5 10/9/5 12/11/5 11/12/5
f 11/12/6 12/11/6 14/13/6 13/14/6
f 13/14/7 14/13/7 16/15/7 15/16/7
f 15/16/8 16/15/8 18/17/8 17/18/8
f 17/18/9 18/17/9 20/19/9 19/20/9
f 19/20/10 20/19/10 22/21/10 21/22/10
f 21/22/11 22/21/11 24/23/11 23/24/11
f 23/24/12 24/23/12 26/25/12 25/26/12
f 25/26/13 26/25/13 28/27/13 27/28/13
f 27/28/14 28/27/14 30/29/14 29/30/14
f 29/30/15 30/29/15 32/31/15 31/32/15
f 31/32/16 32/31/16 34/33/16 33/34/16
f 33/34/17 34/33/17 36/35/17 35/36/17
f 35/36/18 36/35/18 38/37/18 37/38/18
f 37/38/19 38/37/19 40/39/19 39/40/19
f 39/40/20 40/39/20 42/41/20 41/42/20
f 41/42/21 42/41/21 44/43/21 43/44/21
f 43/44/22 44/43/22 46/45/22 45/46/22
f 45/46/23 46/45/23 48/47/23 47/48/23
f 47/48/24 48/47/24 50/49/24 49/50/24
f 49/50/25 50/49/25 52/51/25 51/52/25
f 51/52/26 52/51/26 54/53/26 53/54/26
f 53/54/27 54/53/27 56/55/27 55/56/27
f 55/56/28 56/55/28 58/57/28 57/58/28
f 57/58/29 58/57/29 60/59/29 59/60/29
f 59/60/30 60/59/30 62/61/30 61/62/30
f 4/63/31 2/64/31 64/65/31 62/66/31 60/67/31 58/68/31 56/69/31 54/70/31 52/71/31 50/72/31 48/73/31 46/74/31 44/75/31 42/76/31 40/77/31 38/78/31 36/79/31 34/80/31 32/81/31 30/82/31 28/83/31 26/84/31 24/85/31 22/86/31 20/87/31 18/88/31 16/89/31 14/90/31 12/91/31 10/92/31 8/93/31 6/94/31
f 61/62/32 62/61/32 64/95/32 63/96/32
f 63/96/33 64/95/33 2/97/33 1/98/33
f 1/99/34 3/100/34 5/101/34 7/102/34 9/103/34 11/104/34 13/105/34 15/106/34 17/107/34 19/108/34 21/109/34 23/110/34 25/111/34 27/112/34 29/113/34 31/114/34 33/115/34 35/116/34 37/117/34 39/118/34 41/119/34 43/120/34 45/121/34 47/122/34 49/123/34 51/124/34 53/125/34 55/126/34 57/127/34 59/128/34 61/129/34 63/130/34
